<?xml version="1.0" encoding="UTF-8" standalone="no"?>
<svg
   id="coding_svg"
   width="80"
   height="20"
   xmlns:dc="http://purl.org/dc/elements/1.1/"
   xmlns:cc="http://creativecommons.org/ns#"
   xmlns:rdf="http://www.w3.org/1999/02/22-rdf-syntax-ns#"
   xmlns:svg="http://www.w3.org/2000/svg"
   xmlns="http://www.w3.org/2000/svg"
   xmlns:sodipodi="http://sodipodi.sourceforge.net/DTD/sodipodi-0.dtd"
   xmlns:inkscape="http://www.inkscape.org/namespaces/inkscape"
   inkscape:version="1.0.1 (3bc2e813f5, 2020-09-07)"
   sodipodi:docname="coding_2_path2object.svg">
  <defs>
    <filter id="fi_logo" filterUnits="userSpaceOnUse" x="0" y="0">
      <!--Performs a Gaussian blur on the image-->
      <feGaussianBlur in="SourceAlpha" stdDeviation="0" result="blur" />
      <!--Moves an image relative to its current position-->
      <feOffset in="blur" dx="0" dy="0" result="offsetBlur" />
      <feSpecularLighting in="blur" surfaceScale="5" specularConstant=".75" specularExponent="20" lighting-color="#bbbbbb" result="specOut">
        <fePointLight x="-50000" y="-10000" z="20000" />
      </feSpecularLighting>
      <feComposite in="specOut" in2="SourceAlpha" operator="in" result="specOut" />
      <feComposite in="SourceGraphic" in2="specOut" operator="arithmetic" k1="0" k2="1" k3="1" k4="0" result="litPaint" />
      <!--Creates image layers on top of each other-->
      <feMerge>
        <feMergeNode in="offsetBlur" />
        <feMergeNode in="litPaint" />
      </feMerge>
    </filter>
  </defs>
  <g
     filter="url(#fi_logo)"
     id="coding-g"
     transform="scale(3,3)"
     style="font-weight:900;font-size:7.40833px;line-height:1.25;font-family:Arial;-inkscape-font-specification:'Arial Heavy';stroke-width:0.264583"
     >
    <g
       aria-label="coding"
       id="text835"
       style="font-weight:900;font-size:4.7625px;line-height:1.25;font-family:Arial;-inkscape-font-specification:'Arial Heavy';stroke-width:0.264583">
      <path
         d="m 1.7394286,2.5044982 0.4116028,0.053485 Q 2.0835937,2.9835387 1.804541,3.2253844 1.5278137,3.4649046 1.1231872,3.4649046 0.61624144,3.4649046 0.306958,3.1346923 0,2.8021544 0,2.1835876 0,1.783612 0.13255005,1.4836303 0.26510009,1.1836486 0.53485106,1.0348205 0.80692747,0.88366695 1.1255127,0.88366695 q 0.402301,0 0.6580993,0.20463865 0.2557983,0.2023132 0.3278869,0.576709 L 1.7045471,1.7278014 Q 1.6464111,1.4789794 1.497583,1.3534057 1.3510803,1.227832 1.1417907,1.227832 q -0.31625972,0 -0.51392207,0.227893 -0.19766234,0.2255677 -0.19766234,0.7162354 0,0.497644 0.19068603,0.7232116 0.19068602,0.2255676 0.49764398,0.2255676 0.2464966,0 0.4116028,-0.1511535 0.1651062,-0.1511536 0.2092895,-0.4650879 z"
         style="font-style:normal;font-variant:normal;font-weight:normal;font-stretch:normal;font-size:4.7625px;font-family:Arial;-inkscape-font-specification:Arial;stroke-width:0.264583"
         id="path840" />
      <path
         d="m 2.3533446,2.1742858 q 0,-0.6860046 0.3813721,-1.016217 0.3185852,-0.27440185 0.7766967,-0.27440185 0.5092713,0 0.8325073,0.33486325 0.3232361,0.3325378 0.3232361,0.920874 0,0.4767151 -0.1441772,0.7511169 -0.1418518,0.2720764 -0.4162537,0.42323 -0.2720764,0.1511535 -0.5953125,0.1511535 -0.5185729,0 -0.8394836,-0.3325378 Q 2.3533446,2.799829 2.3533446,2.1742858 Z m 0.4302063,0 q 0,0.4743896 0.2069641,0.7115844 0.2069641,0.2348694 0.5208984,0.2348694 0.3116089,0 0.518573,-0.2371948 0.2069641,-0.2371948 0.2069641,-0.7232116 0,-0.4581116 -0.2092895,-0.692981 -0.2069641,-0.2371948 -0.5162476,-0.2371948 -0.3139343,0 -0.5208984,0.2348694 -0.2069641,0.2348694 -0.2069641,0.709259 z"
         style="font-style:normal;font-variant:normal;font-weight:normal;font-stretch:normal;font-size:4.7625px;font-family:Arial;-inkscape-font-specification:Arial;stroke-width:0.264583"
         id="path842" />
      <path
         d="M 6.7600522,3.4090941 V 3.0974852 q -0.2348693,0.3674194 -0.6906555,0.3674194 -0.2953308,0 -0.5441528,-0.1627807 Q 5.2787474,3.1393431 5.1415464,2.8486632 5.006671,2.5556579 5.006671,2.1766112 q 0,-0.3697448 0.1232482,-0.6697265 0.1232483,-0.3023071 0.3697449,-0.4627624 0.2464966,-0.16045535 0.5511291,-0.16045535 0.2232422,0 0.3976502,0.095343 Q 6.6228513,1.0720275 6.732147,1.2231811 V 0 H 7.1484006 V 3.4090941 Z M 5.4368772,2.1766112 q 0,0.4743897 0.1999878,0.709259 0.1999878,0.2348694 0.4720642,0.2348694 0.2744019,0 0.4650879,-0.2232422 0.1930115,-0.2255676 0.1930115,-0.6860046 0,-0.5069458 -0.195337,-0.7441406 -0.1953369,-0.2371948 -0.4813659,-0.2371948 -0.2790527,0 -0.4674133,0.2278931 -0.1860352,0.227893 -0.1860352,0.7185607 z"
         style="font-style:normal;font-variant:normal;font-weight:normal;font-stretch:normal;font-size:4.7625px;font-family:Arial;-inkscape-font-specification:Arial;stroke-width:0.264583"
         id="path844" />
      <path
         d="M 7.8088254,0.48136594 V 0 h 0.4185791 v 0.48136594 z m 0,2.92772816 V 0.93947749 H 8.2274045 V 3.4090941 Z"
         style="font-style:normal;font-variant:normal;font-weight:normal;font-stretch:normal;font-size:4.7625px;font-family:Arial;-inkscape-font-specification:Arial;stroke-width:0.264583"
         id="path846" />
      <path
         d="M 8.8645744,3.4090941 V 0.93947749 H 9.2412956 V 1.2906188 Q 9.513372,0.88366695 10.027294,0.88366695 q 0.223242,0 0.409277,0.0813904 0.188361,0.079065 0.281379,0.20928957 0.09302,0.1302246 0.130224,0.3092834 0.02325,0.116272 0.02325,0.4069519 V 3.4090941 H 10.45285 V 1.9068603 q 0,-0.2557984 -0.04884,-0.3813721 -0.04883,-0.1278992 -0.174408,-0.2023132 -0.123248,-0.076739 -0.2906796,-0.076739 -0.2674255,0 -0.4627624,0.1697571 -0.1930115,0.169757 -0.1930115,0.6441467 v 1.3487548 z"
         style="font-style:normal;font-variant:normal;font-weight:normal;font-stretch:normal;font-size:4.7625px;font-family:Arial;-inkscape-font-specification:Arial;stroke-width:0.264583"
         id="path848" />
      <path
         d="m 11.436511,3.6137328 0.406952,0.060461 q 0.02558,0.1883606 0.141852,0.2744018 0.155804,0.116272 0.425555,0.116272 0.29068,0 0.44881,-0.116272 0.15813,-0.1162719 0.21394,-0.3255615 0.03256,-0.1278991 0.03023,-0.5371765 -0.274402,0.3232361 -0.683679,0.3232361 -0.509272,0 -0.788324,-0.3674194 -0.279053,-0.3674194 -0.279053,-0.8813415 0,-0.3534668 0.127899,-0.6511231 0.127899,-0.2999816 0.369745,-0.4627624 0.244171,-0.16278075 0.572058,-0.16278075 0.437183,0 0.720886,0.35346675 V 0.93947749 h 0.386023 V 3.0742308 q 0,0.576709 -0.118597,0.8162292 -0.116272,0.2418457 -0.37207,0.3813721 -0.253473,0.1395264 -0.625544,0.1395264 -0.441833,0 -0.713909,-0.1999878 -0.272077,-0.1976624 -0.262775,-0.5976379 z m 0.34649,-1.4836304 q 0,0.4860169 0.193012,0.7092591 0.193011,0.2232421 0.483691,0.2232421 0.288355,0 0.483692,-0.2209167 0.195336,-0.2232422 0.195336,-0.6976318 0,-0.4534607 -0.202313,-0.6836792 -0.199988,-0.2302185 -0.483691,-0.2302185 -0.279053,0 -0.47439,0.2278931 -0.195337,0.2255676 -0.195337,0.6720519 z"
         style="font-style:normal;font-variant:normal;font-weight:normal;font-stretch:normal;font-size:4.7625px;font-family:Arial;-inkscape-font-specification:Arial;stroke-width:0.264583"
         id="path850" />
    </g>
  </g>
</svg>
