<?xml version="1.0" encoding="UTF-8" standalone="no"?>
<svg
   id="internet_coding_svg"
   width="120"
   height="20"
   xmlns:dc="http://purl.org/dc/elements/1.1/"
   xmlns:cc="http://creativecommons.org/ns#"
   xmlns:rdf="http://www.w3.org/1999/02/22-rdf-syntax-ns#"
   xmlns:svg="http://www.w3.org/2000/svg"
   xmlns="http://www.w3.org/2000/svg"
   xmlns:sodipodi="http://sodipodi.sourceforge.net/DTD/sodipodi-0.dtd"
   xmlns:inkscape="http://www.inkscape.org/namespaces/inkscape"
   version="1.1"
   inkscape:version="1.0.1 (3bc2e813f5, 2020-09-07)"
   sodipodi:docname="internet_coding_2_path2object.svg">
  <defs>
    <filter id="fi_logo" filterUnits="userSpaceOnUse" x="0" y="0">
      <!--Performs a Gaussian blur on the image-->
      <feGaussianBlur in="SourceAlpha" stdDeviation="0" result="blur" />
      <!--Moves an image relative to its current position-->
      <feOffset in="blur" dx="0" dy="0" result="offsetBlur" />
      <feSpecularLighting in="blur" surfaceScale="5" specularConstant=".75" specularExponent="20" lighting-color="#bbbbbb" result="specOut">
        <fePointLight x="-50000" y="-10000" z="20000" />
      </feSpecularLighting>
      <feComposite in="specOut" in2="SourceAlpha" operator="in" result="specOut" />
      <feComposite in="SourceGraphic" in2="specOut" operator="arithmetic" k1="0" k2="1" k3="1" k4="0" result="litPaint" />
      <!--Creates image layers on top of each other-->
      <feMerge>
        <feMergeNode in="offsetBlur" />
        <feMergeNode in="litPaint" />
      </feMerge>
    </filter>
  </defs>
  <g
     filter="url(#fi_logo)"
     id="internet-coding-g"
     transform="scale(3,3)"
     style="font-weight:900;font-size:7.40833px;line-height:1.25;font-family:Arial;-inkscape-font-specification:'Arial Heavy';stroke-width:0.264583"
     >
    <g
       aria-label="internet coding"
       id="text835"
       style="font-weight:900;font-size:4.7625px;line-height:1.25;font-family:Arial;-inkscape-font-specification:'Arial Heavy';stroke-width:0.264583">
      <path
         d="M 1.1175871e-8,0.48136594 V 0 H 0.4185791 v 0.48136594 z m 0,2.92772816 V 0.93947749 H 0.4185791 V 3.4090941 Z"
         style="font-style:normal;font-variant:normal;font-weight:normal;font-stretch:normal;font-size:4.7625px;font-family:Arial;-inkscape-font-specification:Arial;stroke-width:0.264583"
         id="path847" />
      <path
         d="M 1.0557495,3.4090941 V 0.93947749 H 1.4324707 V 1.2906188 q 0.2720764,-0.40695185 0.7859985,-0.40695185 0.2232422,0 0.4092773,0.0813904 0.1883606,0.079065 0.2813782,0.20928957 0.093018,0.1302246 0.1302246,0.3092834 0.023254,0.116272 0.023254,0.4069519 V 3.4090941 H 2.6440246 V 1.9068603 q 0,-0.2557984 -0.048834,-0.3813721 Q 2.5463562,1.397589 2.4207824,1.323175 2.2975341,1.2464355 2.1301025,1.2464355 q -0.2674255,0 -0.4627624,0.1697571 -0.1930115,0.169757 -0.1930115,0.6441467 v 1.3487548 z"
         style="font-style:normal;font-variant:normal;font-weight:normal;font-stretch:normal;font-size:4.7625px;font-family:Arial;-inkscape-font-specification:Arial;stroke-width:0.264583"
         id="path849" />
      <path
         d="m 4.6183226,3.0346984 0.060461,0.3697448 q -0.1767334,0.037207 -0.3162598,0.037207 -0.2278931,0 -0.3534668,-0.072089 Q 3.8834838,3.297473 3.8323241,3.181201 3.7811645,3.0626036 3.7811645,2.6858825 V 1.265039 H 3.4742065 V 0.93947749 h 0.306958 V 0.32788694 L 4.1974181,0.07673949 v 0.862738 H 4.6183226 V 1.265039 H 4.1974181 v 1.4440978 q 0,0.1790589 0.020929,0.2302185 0.023254,0.05116 0.072089,0.08139 0.05116,0.030231 0.1441772,0.030231 0.069763,0 0.1837097,-0.016278 z"
         style="font-style:normal;font-variant:normal;font-weight:normal;font-stretch:normal;font-size:4.7625px;font-family:Arial;-inkscape-font-specification:Arial;stroke-width:0.264583"
         id="path851" />
      <path
         d="m 6.7181943,2.6137938 0.4325318,0.053485 Q 7.0484067,3.0463256 6.7716794,3.2556151 6.4949522,3.4649046 6.0647459,3.4649046 q -0.5418274,0 -0.8604126,-0.3325378 -0.3162597,-0.3348633 -0.3162597,-0.9371521 0,-0.6232177 0.3209106,-0.9673827 0.3209106,-0.34416505 0.8325073,-0.34416505 0.4953186,0 0.8092529,0.33718875 0.3139343,0.3371887 0.3139343,0.9487792 0,0.037207 -0.00233,0.1116211 h -1.841748 q 0.023254,0.4069519 0.2302185,0.6232178 0.2069641,0.2162658 0.5162475,0.2162658 0.2302185,0 0.3929993,-0.1209228 0.1627807,-0.1209229 0.2581237,-0.386023 z M 5.3438597,1.937091 H 6.7228452 Q 6.6949399,1.6254821 6.5647153,1.4696777 6.3647276,1.227832 6.0461424,1.227832 q -0.2883545,0 -0.4860169,0.1930114 Q 5.3647886,1.6138549 5.3438597,1.937091 Z"
         style="font-style:normal;font-variant:normal;font-weight:normal;font-stretch:normal;font-size:4.7625px;font-family:Arial;-inkscape-font-specification:Arial;stroke-width:0.264583"
         id="path853" />
      <path
         d="M 7.6716245,3.4090941 V 0.93947749 H 8.0483457 V 1.3138732 q 0.1441772,-0.2627746 0.2651,-0.34649043 0.1232483,-0.0837158 0.269751,-0.0837158 0.211615,0 0.4302063,0.13487545 L 8.8692258,1.4068908 q -0.153479,-0.090692 -0.306958,-0.090692 -0.137201,0 -0.2464966,0.083716 -0.1092957,0.08139 -0.1558045,0.227893 -0.069763,0.2232422 -0.069763,0.4883423 v 1.2929443 z"
         style="font-style:normal;font-variant:normal;font-weight:normal;font-stretch:normal;font-size:4.7625px;font-family:Arial;-inkscape-font-specification:Arial;stroke-width:0.264583"
         id="path855" />
      <path
         d="M 9.2622248,3.4090941 V 0.93947749 H 9.638946 V 1.2906188 q 0.2720764,-0.40695185 0.785998,-0.40695185 0.223243,0 0.409278,0.0813904 0.18836,0.079065 0.281378,0.20928957 0.09302,0.1302246 0.130225,0.3092834 0.02325,0.116272 0.02325,0.4069519 V 3.4090941 H 10.8505 V 1.9068603 q 0,-0.2557984 -0.04883,-0.3813721 -0.04884,-0.1278992 -0.174408,-0.2023132 -0.123249,-0.076739 -0.29068,-0.076739 -0.267426,0 -0.4627627,0.1697571 -0.1930114,0.169757 -0.1930114,0.6441467 v 1.3487548 z"
         style="font-style:normal;font-variant:normal;font-weight:normal;font-stretch:normal;font-size:4.7625px;font-family:Arial;-inkscape-font-specification:Arial;stroke-width:0.264583"
         id="path857" />
      <path
         d="m 13.601495,2.6137938 0.432532,0.053485 q -0.102319,0.3790467 -0.379047,0.5883362 -0.276727,0.2092895 -0.706933,0.2092895 -0.541828,0 -0.860413,-0.3325378 -0.31626,-0.3348633 -0.31626,-0.9371521 0,-0.6232177 0.320911,-0.9673827 0.320911,-0.34416505 0.832507,-0.34416505 0.495319,0 0.809253,0.33718875 0.313934,0.3371887 0.313934,0.9487792 0,0.037207 -0.0023,0.1116211 h -1.841748 q 0.02325,0.4069519 0.230219,0.6232178 0.206964,0.2162658 0.516247,0.2162658 0.230219,0 0.392999,-0.1209228 0.162781,-0.1209229 0.258124,-0.386023 z M 12.22716,1.937091 h 1.378986 Q 13.578241,1.6254821 13.448016,1.4696777 13.248028,1.227832 12.929443,1.227832 q -0.288354,0 -0.486017,0.1930114 -0.195337,0.1930115 -0.216266,0.5162476 z"
         style="font-style:normal;font-variant:normal;font-weight:normal;font-stretch:normal;font-size:4.7625px;font-family:Arial;-inkscape-font-specification:Arial;stroke-width:0.264583"
         id="path859" />
      <path
         d="m 15.473473,3.0346984 0.06046,0.3697448 q -0.176734,0.037207 -0.31626,0.037207 -0.227893,0 -0.353467,-0.072089 Q 14.738634,3.297473 14.687475,3.181201 14.636315,3.0626036 14.636315,2.6858825 V 1.265039 H 14.329357 V 0.93947749 h 0.306958 V 0.32788694 l 0.416254,-0.25114745 v 0.862738 h 0.420904 V 1.265039 h -0.420904 v 1.4440978 q 0,0.1790589 0.02093,0.2302185 0.02325,0.05116 0.07209,0.08139 0.05116,0.030231 0.144178,0.030231 0.06976,0 0.183709,-0.016278 z"
         style="font-style:normal;font-variant:normal;font-weight:normal;font-stretch:normal;font-size:4.7625px;font-family:Arial;-inkscape-font-specification:Arial;stroke-width:0.264583"
         id="path861" />
      <path
         d="m 18.817456,2.5044982 0.411603,0.053485 q -0.06744,0.4255554 -0.346491,0.6674011 -0.276727,0.2395202 -0.681353,0.2395202 -0.506946,0 -0.81623,-0.3302123 -0.306958,-0.3325379 -0.306958,-0.9511047 0,-0.3999756 0.13255,-0.6999573 0.13255,-0.2999817 0.402301,-0.4488098 0.272077,-0.15115355 0.590662,-0.15115355 0.402301,0 0.658099,0.20463865 0.255799,0.2023132 0.327887,0.576709 l -0.406952,0.062787 Q 18.724438,1.4789794 18.57561,1.3534057 18.429108,1.227832 18.219818,1.227832 q -0.31626,0 -0.513922,0.227893 -0.197662,0.2255677 -0.197662,0.7162354 0,0.497644 0.190686,0.7232116 0.190686,0.2255676 0.497644,0.2255676 0.246496,0 0.411602,-0.1511535 0.165107,-0.1511536 0.20929,-0.4650879 z"
         style="font-style:normal;font-variant:normal;font-weight:normal;font-stretch:normal;font-size:4.7625px;font-family:Arial;-inkscape-font-specification:Arial;stroke-width:0.264583"
         id="path863" />
      <path
         d="m 19.431371,2.1742858 q 0,-0.6860046 0.381372,-1.016217 0.318585,-0.27440185 0.776696,-0.27440185 0.509272,0 0.832508,0.33486325 0.323236,0.3325378 0.323236,0.920874 0,0.4767151 -0.144178,0.7511169 -0.141851,0.2720764 -0.416253,0.42323 -0.272077,0.1511535 -0.595313,0.1511535 -0.518573,0 -0.839483,-0.3325378 -0.318585,-0.3325378 -0.318585,-0.958081 z m 0.430206,0 q 0,0.4743896 0.206964,0.7115844 0.206964,0.2348694 0.520898,0.2348694 0.311609,0 0.518573,-0.2371948 0.206964,-0.2371948 0.206964,-0.7232116 0,-0.4581116 -0.209289,-0.692981 -0.206964,-0.2371948 -0.516248,-0.2371948 -0.313934,0 -0.520898,0.2348694 -0.206964,0.2348694 -0.206964,0.709259 z"
         style="font-style:normal;font-variant:normal;font-weight:normal;font-stretch:normal;font-size:4.7625px;font-family:Arial;-inkscape-font-specification:Arial;stroke-width:0.264583"
         id="path865" />
      <path
         d="M 23.838079,3.4090941 V 3.0974852 q -0.23487,0.3674194 -0.690656,0.3674194 -0.295331,0 -0.544153,-0.1627807 -0.246496,-0.1627808 -0.383697,-0.4534607 -0.134876,-0.2930053 -0.134876,-0.672052 0,-0.3697448 0.123249,-0.6697265 0.123248,-0.3023071 0.369745,-0.4627624 0.246496,-0.16045535 0.551129,-0.16045535 0.223242,0 0.39765,0.095343 0.174408,0.0930175 0.283703,0.24417114 V 0 h 0.416254 V 3.4090941 Z M 22.514904,2.1766112 q 0,0.4743897 0.199987,0.709259 0.199988,0.2348694 0.472065,0.2348694 0.274401,0 0.465087,-0.2232422 0.193012,-0.2255676 0.193012,-0.6860046 0,-0.5069458 -0.195337,-0.7441406 -0.195337,-0.2371948 -0.481366,-0.2371948 -0.279053,0 -0.467413,0.2278931 -0.186035,0.227893 -0.186035,0.7185607 z"
         style="font-style:normal;font-variant:normal;font-weight:normal;font-stretch:normal;font-size:4.7625px;font-family:Arial;-inkscape-font-specification:Arial;stroke-width:0.264583"
         id="path867" />
      <path
         d="M 24.886852,0.48136594 V 0 h 0.418579 v 0.48136594 z m 0,2.92772816 V 0.93947749 h 0.418579 V 3.4090941 Z"
         style="font-style:normal;font-variant:normal;font-weight:normal;font-stretch:normal;font-size:4.7625px;font-family:Arial;-inkscape-font-specification:Arial;stroke-width:0.264583"
         id="path869" />
      <path
         d="M 25.942602,3.4090941 V 0.93947749 h 0.376721 V 1.2906188 q 0.272076,-0.40695185 0.785998,-0.40695185 0.223243,0 0.409278,0.0813904 0.18836,0.079065 0.281378,0.20928957 0.09302,0.1302246 0.130225,0.3092834 0.02325,0.116272 0.02325,0.4069519 V 3.4090941 H 27.530877 V 1.9068603 q 0,-0.2557984 -0.04883,-0.3813721 -0.04884,-0.1278992 -0.174408,-0.2023132 -0.123249,-0.076739 -0.29068,-0.076739 -0.267426,0 -0.462763,0.1697571 -0.193011,0.169757 -0.193011,0.6441467 v 1.3487548 z"
         style="font-style:normal;font-variant:normal;font-weight:normal;font-stretch:normal;font-size:4.7625px;font-family:Arial;-inkscape-font-specification:Arial;stroke-width:0.264583"
         id="path871" />
      <path
         d="m 28.514538,3.6137328 0.406952,0.060461 q 0.02558,0.1883606 0.141852,0.2744018 0.155804,0.116272 0.425555,0.116272 0.29068,0 0.44881,-0.116272 0.15813,-0.1162719 0.213941,-0.3255615 0.03256,-0.1278991 0.03023,-0.5371765 -0.274402,0.3232361 -0.683679,0.3232361 -0.509271,0 -0.788324,-0.3674194 -0.279053,-0.3674194 -0.279053,-0.8813415 0,-0.3534668 0.1279,-0.6511231 0.127899,-0.2999816 0.369744,-0.4627624 0.244172,-0.16278075 0.572058,-0.16278075 0.437183,0 0.720887,0.35346675 V 0.93947749 h 0.386023 V 3.0742308 q 0,0.576709 -0.118598,0.8162292 -0.116272,0.2418457 -0.37207,0.3813721 -0.253473,0.1395264 -0.625543,0.1395264 -0.441834,0 -0.71391,-0.1999878 -0.272077,-0.1976624 -0.262775,-0.5976379 z m 0.346491,-1.4836304 q 0,0.4860169 0.193011,0.7092591 0.193012,0.2232421 0.483692,0.2232421 0.288354,0 0.483691,-0.2209167 0.195337,-0.2232422 0.195337,-0.6976318 0,-0.4534607 -0.202313,-0.6836792 -0.199988,-0.2302185 -0.483692,-0.2302185 -0.279053,0 -0.474389,0.2278931 -0.195337,0.2255676 -0.195337,0.6720519 z"
         style="font-style:normal;font-variant:normal;font-weight:normal;font-stretch:normal;font-size:4.7625px;font-family:Arial;-inkscape-font-specification:Arial;stroke-width:0.264583"
         id="path873" />
    </g>
  </g>
</svg>
