<?xml version="1.0" encoding="UTF-8" standalone="no"?>
<svg
   id="james_pankhurst_svg"
   width="120"
   height="20"
   xmlns:dc="http://purl.org/dc/elements/1.1/"
   xmlns:cc="http://creativecommons.org/ns#"
   xmlns:rdf="http://www.w3.org/1999/02/22-rdf-syntax-ns#"
   xmlns:svg="http://www.w3.org/2000/svg"
   xmlns="http://www.w3.org/2000/svg"
   xmlns:sodipodi="http://sodipodi.sourceforge.net/DTD/sodipodi-0.dtd"
   xmlns:inkscape="http://www.inkscape.org/namespaces/inkscape"
   inkscape:version="1.0.1 (3bc2e813f5, 2020-09-07)"
   sodipodi:docname="james_pankhurst_2_path2object.svg">
  <defs>
    <filter id="fi_logo" filterUnits="userSpaceOnUse" x="0" y="0">
      <!--Performs a Gaussian blur on the image-->
      <feGaussianBlur in="SourceAlpha" stdDeviation="0" result="blur" />
      <!--Moves an image relative to its current position-->
      <feOffset in="blur" dx="0" dy="0" result="offsetBlur" />
      <feSpecularLighting in="blur" surfaceScale="5" specularConstant=".75" specularExponent="20" lighting-color="#bbbbbb" result="specOut">
        <fePointLight x="-50000" y="-10000" z="20000" />
      </feSpecularLighting>
      <feComposite in="specOut" in2="SourceAlpha" operator="in" result="specOut" />
      <feComposite in="SourceGraphic" in2="specOut" operator="arithmetic" k1="0" k2="1" k3="1" k4="0" result="litPaint" />
      <!--Creates image layers on top of each other-->
      <feMerge>
        <feMergeNode in="offsetBlur" />
        <feMergeNode in="litPaint" />
      </feMerge>
    </filter>
  </defs>
  <g
     filter="url(#fi_logo)"
     id="james-pankhurst-g"
     transform="scale(3,3)"
     style="font-weight:900;font-size:7.40833px;line-height:1.25;font-family:Arial;-inkscape-font-specification:'Arial Heavy';stroke-width:0.264583"
     >
    <g
       aria-label="james pankhurst"
       id="text835"
       style="font-weight:900;font-size:4.7625px;line-height:1.25;font-family:Arial;-inkscape-font-specification:'Arial Heavy';stroke-width:0.264583">
      <path
         d="M 0.53020018,0.48601682 V 0 H 0.94877926 V 0.48601682 Z M 0,4.3671751 0.07906494,4.0113829 q 0.12557373,0.032556 0.19766235,0.032556 0.12789916,0 0.19068602,-0.086041 0.0627869,-0.083716 0.0627869,-0.42323 V 0.93947749 H 0.94877926 V 3.5439696 q 0,0.4557861 -0.11859741,0.6348449 Q 0.6790283,4.4113585 0.32788695,4.4113585 0.15812988,4.4113585 0,4.3671751 Z"
         style="font-style:normal;font-variant:normal;font-weight:normal;font-stretch:normal;font-size:4.7625px;font-family:Arial;-inkscape-font-specification:Arial;stroke-width:0.264583"
         id="path840" />
      <path
         d="m 3.20213,3.1044615 q -0.2325439,0.1976624 -0.4488098,0.2790528 -0.2139404,0.08139 -0.4604369,0.08139 -0.4069519,0 -0.6255432,-0.1976623 -0.2185913,-0.1999878 -0.2185913,-0.5092712 0,-0.1813843 0.08139,-0.3302124 Q 1.613855,2.2766051 1.746405,2.185913 1.8812805,2.0952209 2.0487121,2.0487121 2.1719604,2.0161559 2.4207824,1.9859252 2.9277282,1.9254638 3.1672485,1.841748 q 0.00233,-0.086041 0.00233,-0.1092957 0,-0.2557983 -0.1185974,-0.3604431 -0.1604553,-0.1418518 -0.4767151,-0.1418518 -0.2953308,0 -0.4371826,0.1046448 -0.1395263,0.1023193 -0.2069641,0.365094 L 1.5208374,1.6440856 Q 1.5766479,1.381311 1.7045471,1.2208557 1.8324463,1.0580749 2.074292,0.97203365 q 0.2418456,-0.0883667 0.5604308,-0.0883667 0.3162598,0 0.5139221,0.0744141 0.1976624,0.0744141 0.29068,0.18836059 0.093018,0.1116211 0.1302246,0.2837036 0.020929,0.1069702 0.020929,0.3860229 v 0.5581055 q 0,0.5836853 0.02558,0.7394897 0.027905,0.153479 0.1069703,0.2953308 H 3.2858459 Q 3.2207336,3.2788695 3.20213,3.1044615 Z M 3.1672485,2.1696349 q -0.2278931,0.093018 -0.6836792,0.1581299 -0.2581238,0.037207 -0.365094,0.083716 -0.1069702,0.046509 -0.1651062,0.1372009 -0.058136,0.088367 -0.058136,0.1976624 0,0.1674316 0.1255737,0.2790527 0.1278992,0.1116211 0.3720703,0.1116211 0.2418457,0 0.4302063,-0.1046448 Q 3.011444,2.9254027 3.0998107,2.741693 3.1672485,2.5998412 3.1672485,2.3231139 Z"
         style="font-style:normal;font-variant:normal;font-weight:normal;font-stretch:normal;font-size:4.7625px;font-family:Arial;-inkscape-font-specification:Arial;stroke-width:0.264583"
         id="path842" />
      <path
         d="M 4.239276,3.4090941 V 0.93947749 H 4.6136717 V 1.285968 q 0.116272,-0.1813843 0.3092835,-0.29067996 0.1930114,-0.11162109 0.439508,-0.11162109 0.2744019,0 0.4488098,0.11394653 Q 5.9880064,1.11156 6.060095,1.3161987 6.3531004,0.88366695 6.8228391,0.88366695 q 0.3674195,0 0.5650818,0.20463865 0.1976623,0.2023132 0.1976623,0.6255432 V 3.4090941 H 7.1693296 V 1.8533752 q 0,-0.2511475 -0.041858,-0.3604431 Q 7.0879392,1.381311 6.980969,1.3138732 6.8739988,1.2464355 6.7298216,1.2464355 q -0.2604492,0 -0.4325318,0.1744079 Q 6.1252073,1.592926 6.1252073,1.974298 V 3.4090941 H 5.7066282 V 1.8045409 q 0,-0.2790527 -0.1023193,-0.418579 -0.1023193,-0.1395264 -0.3348633,-0.1395264 -0.1767333,0 -0.3278869,0.093018 -0.1488281,0.093017 -0.2162659,0.2720764 -0.067438,0.1790588 -0.067438,0.5162475 v 1.2813171 z"
         style="font-style:normal;font-variant:normal;font-weight:normal;font-stretch:normal;font-size:4.7625px;font-family:Arial;-inkscape-font-specification:Arial;stroke-width:0.264583"
         id="path844" />
      <path
         d="m 9.8970702,2.6137938 0.4325318,0.053485 Q 10.227283,3.0463256 9.9505553,3.2556151 9.673828,3.4649046 9.2436218,3.4649046 q -0.5418274,0 -0.8604126,-0.3325378 -0.3162598,-0.3348633 -0.3162598,-0.9371521 0,-0.6232177 0.3209107,-0.9673827 0.3209106,-0.34416505 0.8325073,-0.34416505 0.4953186,0 0.8092526,0.33718875 0.313935,0.3371887 0.313935,0.9487792 0,0.037207 -0.0023,0.1116211 H 8.4994812 q 0.023254,0.4069519 0.2302185,0.6232178 0.2069641,0.2162658 0.5162475,0.2162658 0.2302185,0 0.3929993,-0.1209228 0.1627807,-0.1209229 0.2581237,-0.386023 z M 8.5227356,1.937091 H 9.9017211 Q 9.8738158,1.6254821 9.7435912,1.4696777 9.5436034,1.227832 9.2250183,1.227832 q -0.2883545,0 -0.4860169,0.1930114 Q 8.5436645,1.6138549 8.5227356,1.937091 Z"
         style="font-style:normal;font-variant:normal;font-weight:normal;font-stretch:normal;font-size:4.7625px;font-family:Arial;-inkscape-font-specification:Arial;stroke-width:0.264583"
         id="path846" />
      <path
         d="m 10.687719,2.6719298 0.413928,-0.065112 q 0.03488,0.248822 0.193012,0.3813721 0.160455,0.13255 0.446484,0.13255 0.288355,0 0.427881,-0.116272 0.139526,-0.1185974 0.139526,-0.2767272 0,-0.1418518 -0.123248,-0.2232422 -0.08604,-0.055811 -0.427881,-0.1418518 -0.460437,-0.116272 -0.639496,-0.1999878 -0.176733,-0.086041 -0.269751,-0.2348694 -0.09069,-0.1511535 -0.09069,-0.3325378 0,-0.1651062 0.07441,-0.3046326 0.07674,-0.1418518 0.206964,-0.2348693 0.09767,-0.0720887 0.265101,-0.12092288 0.169757,-0.0511597 0.362768,-0.0511597 0.29068,0 0.509271,0.0837158 0.220917,0.0837158 0.325562,0.22789303 0.104645,0.1418518 0.144177,0.3813721 l -0.409277,0.05581 Q 12.208556,1.4417724 12.073681,1.3348022 11.941131,1.227832 11.69696,1.227832 q -0.288355,0 -0.411603,0.095343 -0.123248,0.095343 -0.123248,0.2232422 0,0.08139 0.05116,0.1465026 0.05116,0.067438 0.160456,0.1116211 0.06279,0.023254 0.369745,0.1069702 0.444159,0.1185975 0.618566,0.195337 0.176734,0.074414 0.276728,0.2185913 0.09999,0.1441772 0.09999,0.3581176 0,0.2092896 -0.123249,0.3953247 -0.120922,0.1837097 -0.351141,0.286029 -0.230218,0.099994 -0.520898,0.099994 -0.481366,0 -0.734839,-0.1999877 -0.251148,-0.1999878 -0.320911,-0.5929871 z"
         style="font-style:normal;font-variant:normal;font-weight:normal;font-stretch:normal;font-size:4.7625px;font-family:Arial;-inkscape-font-specification:Arial;stroke-width:0.264583"
         id="path848" />
      <path
         d="M 14.559576,4.3555479 V 0.93947749 h 0.381372 V 1.2603881 q 0.134875,-0.1883606 0.304632,-0.28137814 0.169757,-0.095343 0.411603,-0.095343 0.31626,0 0.558105,0.16278075 0.241846,0.1627808 0.365094,0.460437 0.123249,0.2953308 0.123249,0.6487976 0,0.3790466 -0.137201,0.6836792 -0.134876,0.3023071 -0.395325,0.4650878 -0.258124,0.1604553 -0.544153,0.1604553 -0.209289,0 -0.376721,-0.088367 -0.165106,-0.088367 -0.272076,-0.2232421 v 1.2022521 z m 0.379046,-2.1673095 q 0,0.4767151 0.193012,0.7046082 0.193011,0.227893 0.467413,0.227893 0.279053,0 0.476715,-0.2348694 0.199988,-0.2371948 0.199988,-0.7325134 0,-0.4720641 -0.195337,-0.7069335 -0.193011,-0.2348694 -0.462762,-0.2348694 -0.267426,0 -0.47439,0.2511475 -0.204639,0.248822 -0.204639,0.725537 z"
         style="font-style:normal;font-variant:normal;font-weight:normal;font-stretch:normal;font-size:4.7625px;font-family:Arial;-inkscape-font-specification:Arial;stroke-width:0.264583"
         id="path850" />
      <path
         d="m 18.819781,3.1044615 q -0.232544,0.1976624 -0.44881,0.2790528 -0.21394,0.08139 -0.460437,0.08139 -0.406952,0 -0.625543,-0.1976623 Q 17.0664,3.0672545 17.0664,2.7579711 q 0,-0.1813843 0.08139,-0.3302124 0.08372,-0.1511536 0.216266,-0.2418457 0.134875,-0.090692 0.302307,-0.1372009 0.123248,-0.032556 0.37207,-0.062787 0.506946,-0.060461 0.746466,-0.1441772 0.0023,-0.086041 0.0023,-0.1092957 0,-0.2557983 -0.118598,-0.3604431 -0.160455,-0.1418518 -0.476715,-0.1418518 -0.29533,0 -0.437182,0.1046448 -0.139527,0.1023193 -0.206964,0.365094 l -0.409278,-0.055811 q 0.05581,-0.2627746 0.18371,-0.4232299 0.127899,-0.1627808 0.369745,-0.24882205 0.241846,-0.0883667 0.560431,-0.0883667 0.31626,0 0.513922,0.0744141 0.197662,0.0744141 0.29068,0.18836059 0.09302,0.1116211 0.130224,0.2837036 0.02093,0.1069702 0.02093,0.3860229 v 0.5581055 q 0,0.5836853 0.02558,0.7394897 0.02791,0.153479 0.10697,0.2953308 h -0.437182 q -0.06511,-0.1302246 -0.08372,-0.3046326 z m -0.03488,-0.9348266 q -0.227893,0.093018 -0.683679,0.1581299 -0.258124,0.037207 -0.365094,0.083716 -0.10697,0.046509 -0.165106,0.1372009 -0.05814,0.088367 -0.05814,0.1976624 0,0.1674316 0.125574,0.2790527 0.127899,0.1116211 0.37207,0.1116211 0.241846,0 0.430206,-0.1046448 0.188361,-0.1069702 0.276728,-0.2906799 0.06744,-0.1418518 0.06744,-0.4185791 z"
         style="font-style:normal;font-variant:normal;font-weight:normal;font-stretch:normal;font-size:4.7625px;font-family:Arial;-inkscape-font-specification:Arial;stroke-width:0.264583"
         id="path852" />
      <path
         d="M 19.856927,3.4090941 V 0.93947749 h 0.376722 V 1.2906188 q 0.272076,-0.40695185 0.785998,-0.40695185 0.223242,0 0.409277,0.0813904 0.188361,0.079065 0.281379,0.20928957 0.09302,0.1302246 0.130224,0.3092834 0.02325,0.116272 0.02325,0.4069519 V 3.4090941 H 21.445203 V 1.9068603 q 0,-0.2557984 -0.04884,-0.3813721 -0.04883,-0.1278992 -0.174408,-0.2023132 -0.123248,-0.076739 -0.29068,-0.076739 -0.267425,0 -0.462762,0.1697571 -0.193011,0.169757 -0.193011,0.6441467 v 1.3487548 z"
         style="font-style:normal;font-variant:normal;font-weight:normal;font-stretch:normal;font-size:4.7625px;font-family:Arial;-inkscape-font-specification:Arial;stroke-width:0.264583"
         id="path854" />
      <path
         d="M 22.507927,3.4090941 V 0 h 0.418579 v 1.9440673 l 0.990637,-1.00458981 h 0.541828 L 23.514842,1.8557006 24.554314,3.4090941 H 24.038066 L 23.221837,2.1463805 22.926506,2.4300841 v 0.97901 z"
         style="font-style:normal;font-variant:normal;font-weight:normal;font-stretch:normal;font-size:4.7625px;font-family:Arial;-inkscape-font-specification:Arial;stroke-width:0.264583"
         id="path856" />
      <path
         d="M 24.886852,3.4090941 V 0 h 0.418579 v 1.2231811 q 0.293005,-0.33951415 0.73949,-0.33951415 0.274402,0 0.476715,0.10929565 0.202313,0.1069702 0.288354,0.2976562 0.08837,0.1906861 0.08837,0.5534546 V 3.4090941 H 26.479778 V 1.8440734 q 0,-0.3139343 -0.137201,-0.4557861 -0.134876,-0.1441772 -0.383698,-0.1441772 -0.186035,0 -0.351141,0.097668 -0.162781,0.095343 -0.232544,0.2604492 -0.06976,0.1651062 -0.06976,0.4557861 v 1.3510803 z"
         style="font-style:normal;font-variant:normal;font-weight:normal;font-stretch:normal;font-size:4.7625px;font-family:Arial;-inkscape-font-specification:Arial;stroke-width:0.264583"
         id="path858" />
      <path
         d="M 29.154034,3.4090941 V 3.0463256 q -0.288355,0.418579 -0.783673,0.418579 -0.218592,0 -0.409278,-0.083716 Q 27.772723,3.297473 27.679705,3.1718993 27.589013,3.0440001 27.551806,2.8602904 27.526226,2.7370421 27.526226,2.4696166 V 0.93947749 h 0.418579 V 2.3091613 q 0,0.3278869 0.02558,0.4418335 0.03953,0.1651062 0.167432,0.2604492 0.127899,0.093018 0.316259,0.093018 0.188361,0 0.353467,-0.095343 0.165106,-0.097668 0.232544,-0.2627746 0.06976,-0.1674317 0.06976,-0.4836914 V 0.93947749 h 0.418579 V 3.4090941 Z"
         style="font-style:normal;font-variant:normal;font-weight:normal;font-stretch:normal;font-size:4.7625px;font-family:Arial;-inkscape-font-specification:Arial;stroke-width:0.264583"
         id="path860" />
      <path
         d="M 30.179553,3.4090941 V 0.93947749 h 0.376721 V 1.3138732 q 0.144177,-0.2627746 0.2651,-0.34649043 0.123248,-0.0837158 0.269751,-0.0837158 0.211615,0 0.430206,0.13487545 l -0.144177,0.3883484 q -0.153479,-0.090692 -0.306958,-0.090692 -0.137201,0 -0.246496,0.083716 -0.109296,0.08139 -0.155805,0.227893 -0.06976,0.2232422 -0.06976,0.4883423 v 1.2929443 z"
         style="font-style:normal;font-variant:normal;font-weight:normal;font-stretch:normal;font-size:4.7625px;font-family:Arial;-inkscape-font-specification:Arial;stroke-width:0.264583"
         id="path862" />
      <path
         d="m 31.602721,2.6719298 0.413928,-0.065112 q 0.03488,0.248822 0.193012,0.3813721 0.160455,0.13255 0.446484,0.13255 0.288355,0 0.427881,-0.116272 0.139526,-0.1185974 0.139526,-0.2767272 0,-0.1418518 -0.123248,-0.2232422 -0.08604,-0.055811 -0.427881,-0.1418518 -0.460437,-0.116272 -0.639496,-0.1999878 -0.176733,-0.086041 -0.269751,-0.2348694 -0.09069,-0.1511535 -0.09069,-0.3325378 0,-0.1651062 0.07441,-0.3046326 0.07674,-0.1418518 0.206964,-0.2348693 0.09767,-0.0720887 0.2651,-0.12092288 0.169758,-0.0511597 0.362769,-0.0511597 0.29068,0 0.509271,0.0837158 0.220917,0.0837158 0.325562,0.22789303 0.104644,0.1418518 0.144177,0.3813721 l -0.409277,0.05581 Q 33.123558,1.4417724 32.988683,1.3348022 32.856133,1.227832 32.611962,1.227832 q -0.288355,0 -0.411603,0.095343 -0.123248,0.095343 -0.123248,0.2232422 0,0.08139 0.05116,0.1465026 0.05116,0.067438 0.160456,0.1116211 0.06279,0.023254 0.369744,0.1069702 0.444159,0.1185975 0.618567,0.195337 0.176734,0.074414 0.276728,0.2185913 0.09999,0.1441772 0.09999,0.3581176 0,0.2092896 -0.123249,0.3953247 -0.120923,0.1837097 -0.351141,0.286029 -0.230219,0.099994 -0.520899,0.099994 -0.481365,0 -0.734838,-0.1999877 -0.251148,-0.1999878 -0.320911,-0.5929871 z"
         style="font-style:normal;font-variant:normal;font-weight:normal;font-stretch:normal;font-size:4.7625px;font-family:Arial;-inkscape-font-specification:Arial;stroke-width:0.264583"
         id="path864" />
      <path
         d="m 35.065301,3.0346984 0.06046,0.3697448 q -0.176733,0.037207 -0.31626,0.037207 -0.227893,0 -0.353466,-0.072089 Q 34.330462,3.297473 34.279302,3.181201 34.228143,3.0626036 34.228143,2.6858825 V 1.265039 H 33.921185 V 0.93947749 h 0.306958 V 0.32788694 l 0.416253,-0.25114745 v 0.862738 h 0.420905 V 1.265039 h -0.420905 v 1.4440978 q 0,0.1790589 0.02093,0.2302185 0.02325,0.05116 0.07209,0.08139 0.05116,0.030231 0.144177,0.030231 0.06976,0 0.18371,-0.016278 z"
         style="font-style:normal;font-variant:normal;font-weight:normal;font-stretch:normal;font-size:4.7625px;font-family:Arial;-inkscape-font-specification:Arial;stroke-width:0.264583"
         id="path866" />
    </g>
  </g>
</svg>
