<?xml version="1.0" encoding="UTF-8" standalone="no"?>
<svg 
   id="jpic5x5_svg"
   width="220"
   height="110"
   xmlns:dc="http://purl.org/dc/elements/1.1/"
   xmlns:cc="http://creativecommons.org/ns#"
   xmlns:rdf="http://www.w3.org/1999/02/22-rdf-syntax-ns#"
   xmlns:svg="http://www.w3.org/2000/svg"
   xmlns="http://www.w3.org/2000/svg"
  >
  <defs>
    <filter id="fi_logo" filterUnits="userSpaceOnUse" x="0" y="0">
      <!--Performs a Gaussian blur on the image-->
      <feGaussianBlur in="SourceAlpha" stdDeviation="1" result="blur" />
      <!--Moves an image relative to its current position-->
      <feOffset in="blur" dx="2" dy="2" result="offsetBlur" />
      <feSpecularLighting in="blur" surfaceScale="5" specularConstant=".75" specularExponent="20" lighting-color="#bbbbbb" result="specOut">
        <fePointLight x="-50000" y="-10000" z="20000" />
      </feSpecularLighting>
      <feComposite in="specOut" in2="SourceAlpha" operator="in" result="specOut" />
      <feComposite in="SourceGraphic" in2="specOut" operator="arithmetic" k1="0" k2="1" k3="1" k4="0" result="litPaint" />
      <!--Creates image layers on top of each other-->
      <feMerge>
        <feMergeNode in="offsetBlur" />
        <feMergeNode in="litPaint" />
      </feMerge>
    </filter>
  </defs>
  <g
     filter="url(#fi_logo)"
     aria-label="jpic"
     id="jpic_g"
     style="font-weight:900;font-size:7.40833px;line-height:1.25;font-family:Arial;-inkscape-font-specification:'Arial Heavy';stroke-width:0.264583"
     transform="scale(5,5)">
     <path 
     d="M 2.22312,-2.6077032e-8 H 6.018237 V 2.6044921 H 2.22312 Z M 2.22312,3.75791 h 3.795117 v 9.58081 q 0,1.832446 -0.2697509,2.59519 -0.2604492,0.762745 -0.9766846,1.237134 -0.7162353,0.47439 -2.0463866,0.47439 -1.0976074,0 -2.725414922351741,-0.325562 L 0.56740718,14.566552 q 0.45578612,0.09302 0.66972652,0.09302 0.4836914,0 0.7348389,-0.334864 Q 2.22312,13.999145 2.22312,13.013159 Z"
     style="font-size:19.05px;fill:#ff6600;stroke-width:0.264583"
     id="j_logo" />
     <path
     d="M 8.436694,17.394286 V 3.75791 h 3.54397 v 1.4603759 q 0.734838,-0.920874 1.348754,-1.2464355 0.827857,-0.4371826 1.832447,-0.4371826 1.981274,0 3.060278,1.5161865 1.088305,1.5161864 1.088305,3.7486082 0,2.4649655 -1.181323,3.7672115 -1.181323,1.292945 -2.985864,1.292945 -0.874365,0 -1.599902,-0.297657 -0.716235,-0.297656 -1.283643,-0.883667 v 4.715991 z m 3.795117,-8.6692375 q 0,1.1720214 0.492993,1.7394285 0.492993,0.567407 1.246436,0.567407 0.660424,0 1.106909,-0.539502 0.446484,-0.5488033 0.446484,-1.8510494 0,-1.1999267 -0.465088,-1.7580321 -0.465088,-0.5674072 -1.134814,-0.5674072 -0.725537,0 -1.209229,0.5674072 -0.483691,0.5674072 -0.483691,1.841748 z"
     style="font-size:19.05px;fill:#ac9393;stroke-width:0.264583"
     id="p_logo" />
     <path
     d="m 21.263817,-2.6077032e-8 h 3.785816 V 2.5765868 H 21.263817 Z M 21.263817,3.75791 h 3.785816 v 9.878466 h -3.785816 z"
     style="font-size:19.05px;fill:#ac9393;stroke-width:0.264583"
     id="i_logo" />
     <path
     d="m 34.835083,9.776147 3.59978,0.409277 q -0.297657,1.125513 -0.976685,1.953369 -0.679028,0.818555 -1.739428,1.274341 -1.051099,0.455786 -2.678907,0.455786 -1.571997,0 -2.623095,-0.288354 -1.041797,-0.297656 -1.795239,-0.948779 -0.753443,-0.660425 -1.181324,-1.544092 -0.42788,-0.883667 -0.42788,-2.344043 0,-1.5254883 0.520898,-2.5393798 0.381372,-0.7441406 1.041797,-1.3301513 0.660425,-0.5953125 1.358056,-0.883667 1.10691,-0.4557861 2.837036,-0.4557861 2.418457,0 3.683496,0.8650634 1.274341,0.8650635 1.785938,2.5300781 L 34.676953,7.4041989 Q 34.509521,6.7716794 34.063037,6.4554196 33.625854,6.1298581 32.881714,6.1298581 q -0.939478,0 -1.525489,0.6790283 -0.576709,0.6697266 -0.576709,2.0370849 0,1.2185307 0.576709,1.8510497 0.576709,0.63252 1.469678,0.63252 0.744141,0 1.246435,-0.381373 0.511597,-0.381372 0.762745,-1.172021 z"
     style="font-size:19.05px;fill:#ac9393;stroke-width:0.264583"
     id="c_logo" />
  </g>
</svg>
