<?xml version="1.0" encoding="UTF-8" standalone="no"?>
  <svg 
   id="p4x4_svg"
   width="176"
   height="88"
   xmlns:dc="http://purl.org/dc/elements/1.1/"
   xmlns:cc="http://creativecommons.org/ns#"
   xmlns:rdf="http://www.w3.org/1999/02/22-rdf-syntax-ns#"
   xmlns:svg="http://www.w3.org/2000/svg"
   xmlns="http://www.w3.org/2000/svg"
  >
  <defs>
    <filter id="fi_logo" filterUnits="userSpaceOnUse" x="0" y="0">
      <!--Performs a Gaussian blur on the image-->
      <feGaussianBlur in="SourceAlpha" stdDeviation="1" result="blur" />
      <!--Moves an image relative to its current position-->
      <feOffset in="blur" dx="2" dy="2" result="offsetBlur" />
      <feSpecularLighting in="blur" surfaceScale="5" specularConstant=".75" specularExponent="20" lighting-color="#bbbbbb" result="specOut">
        <fePointLight x="-50000" y="-10000" z="20000" />
      </feSpecularLighting>
      <feComposite in="specOut" in2="SourceAlpha" operator="in" result="specOut" />
      <feComposite in="SourceGraphic" in2="specOut" operator="arithmetic" k1="0" k2="1" k3="1" k4="0" result="litPaint" />
      <!--Creates image layers on top of each other-->
      <feMerge>
        <feMergeNode in="offsetBlur" />
        <feMergeNode in="litPaint" />
      </feMerge>
    </filter>
  </defs>
  <g
     filter="url(#fi_logo)"
     aria-label="jpic"
     id="jpic_g"
     style="font-weight:900;font-size:7.40833px;line-height:1.25;font-family:Arial;-inkscape-font-specification:'Arial Heavy';stroke-width:0.264583"
     transform="scale(4,4)">
     <path
     d="M 8.436694,17.394286 V 3.75791 h 3.54397 v 1.4603759 q 0.734838,-0.920874 1.348754,-1.2464355 0.827857,-0.4371826 1.832447,-0.4371826 1.981274,0 3.060278,1.5161865 1.088305,1.5161864 1.088305,3.7486082 0,2.4649655 -1.181323,3.7672115 -1.181323,1.292945 -2.985864,1.292945 -0.874365,0 -1.599902,-0.297657 -0.716235,-0.297656 -1.283643,-0.883667 v 4.715991 z m 3.795117,-8.6692375 q 0,1.1720214 0.492993,1.7394285 0.492993,0.567407 1.246436,0.567407 0.660424,0 1.106909,-0.539502 0.446484,-0.5488033 0.446484,-1.8510494 0,-1.1999267 -0.465088,-1.7580321 -0.465088,-0.5674072 -1.134814,-0.5674072 -0.725537,0 -1.209229,0.5674072 -0.483691,0.5674072 -0.483691,1.841748 z"
     style="font-size:19.05px;fill:#ac9393;stroke-width:0.264583"
     id="p_logo" />
  </g>
</svg>
